HIERARCHY
ROOT Hips
{
  OFFSET 263.056 91.6644 -274.608
  CHANNELS 6 Xposition Yposition Zposition Zrotation Xrotation Yrotation
  JOINT LeftUpLeg
  {
    OFFSET 8.64259 1.95398 -2.38835
    CHANNELS 3 Zrotation Xrotation Yrotation
    JOINT LeftLeg
    {
      OFFSET 43.7702 0 0
      CHANNELS 3 Zrotation Xrotation Yrotation
      JOINT LeftFoot
      {
        OFFSET 40.6238 0 0
        CHANNELS 3 Zrotation Xrotation Yrotation
        JOINT LeftToeBase
        {
          OFFSET 12.7242 0 0
          CHANNELS 3 Zrotation Xrotation Yrotation
          End Site
          {
            OFFSET 0 0 0
          }
        }
      }
    }
  }
  JOINT RightUpLeg
  {
    OFFSET -8.2249 1.95398 -2.59336
    CHANNELS 3 Zrotation Xrotation Yrotation
    JOINT RightLeg
    {
      OFFSET 43.5653 0 0
      CHANNELS 3 Zrotation Xrotation Yrotation
      JOINT RightFoot
      {
        OFFSET 40.6238 0 0
        CHANNELS 3 Zrotation Xrotation Yrotation
        JOINT RightToeBase
        {
          OFFSET 12.7242 0 0
          CHANNELS 3 Zrotation Xrotation Yrotation
          End Site
          {
            OFFSET 0 0 0
          }
        }
      }
    }
  }
  JOINT Spine
  {
    OFFSET 0.165834 0.87714 6.61349
    CHANNELS 3 Zrotation Xrotation Yrotation
    JOINT Spine1
    {
      OFFSET 7.38963 1.71661e-005 0
      CHANNELS 3 Zrotation Xrotation Yrotation
      JOINT Spine2
      {
        OFFSET 11.9445 1.14441e-005 0
        CHANNELS 3 Zrotation Xrotation Yrotation
        JOINT Spine3
        {
          OFFSET 14.7254 4.19617e-005 0
          CHANNELS 3 Zrotation Xrotation Yrotation
          JOINT Spine4
          {
            OFFSET 10.9679 0 0
            CHANNELS 3 Zrotation Xrotation Yrotation
            JOINT RightShoulder
            {
              OFFSET 2.46616 -1.6653 3.69651
              CHANNELS 3 Zrotation Xrotation Yrotation
              JOINT RightArm
              {
                OFFSET 13.0012 0 0
                CHANNELS 3 Zrotation Xrotation Yrotation
                JOINT RightForeArm
                {
                  OFFSET 28.7848 1.52588e-005 0
                  CHANNELS 3 Zrotation Xrotation Yrotation
                  JOINT RightHand
                  {
                    OFFSET 26.5688 1.52588e-005 0
                    CHANNELS 3 Zrotation Xrotation Yrotation
                    End Site
                    {
                      OFFSET 0 0 0
                    }
                  }
                }
              }
            }
            JOINT LeftShoulder
            {
              OFFSET 2.38034 -1.29275 -3.7523
              CHANNELS 3 Zrotation Xrotation Yrotation
              JOINT LeftArm
              {
                OFFSET 16.3182 6.10352e-005 0
                CHANNELS 3 Zrotation Xrotation Yrotation
                JOINT LeftForeArm
                {
                  OFFSET 27.0901 0 0
                  CHANNELS 3 Zrotation Xrotation Yrotation
                  JOINT LeftHand
                  {
                    OFFSET 24.5451 1.52588e-005 0
                    CHANNELS 3 Zrotation Xrotation Yrotation
                    End Site
                    {
                      OFFSET 0 0 0
                    }
                  }
                }
              }
            }
            JOINT Neck
            {
              OFFSET 5.0226 -0.0266342 0
              CHANNELS 3 Zrotation Xrotation Yrotation
              JOINT Head
              {
                OFFSET 6.69364 2.86102e-005 0
                CHANNELS 3 Zrotation Xrotation Yrotation
                End Site
                {
                  OFFSET 0 0 0
                }
              }
            }
          }
        }
      }
    }
  }
}
MOTION
Frames:	7
Frame Time:	0.0416667
-6.93474 94.9444 103.44 11.1691 -88.6592 9.21843 -173.765 -0.3801 85.7569 -17.7197 15.5029 -1.16913 65.802 10.5599 12.183 41.2157 12.5748 -10.5319 179.458 25.5775 89.119 -22.9194 9.56668 -0.462403 62.2629 -2.16563 -1.22485 44.8375 1.32386 4.24108 -0.777073 7.61303 -89.7495 11.6524 -1.4282 0.648035 -0.0179232 -1.39829 0.710268 -22.5592 -1.55691 0.188748 -2.54658 -1.55692 0.188741 78.1589 -54.3664 -116.813 25.9814 -9.94706 18.0333 -7.49171 -16.298 -38.9973 -5.99445 -0.567426 4.13073 -103.539 -40.8522 54.7737 -20.7997 8.40404 2.88663 7.84564 6.74304 -46.8665 15.7434 1.43792 5.19169 5.97744 1.26422 -0.352468 0.930701 1.37255 1.77622 
-7.18552 93.935 109.847 57.8166 -87.5588 55.4627 -173.24 -4.40161 86.4376 -17.7444 18.7044 -1.14436 65.0913 11.1087 14.1901 45.9393 16.7804 -11.0608 -178.982 23.9526 88.077 -5.82325 7.32968 -1.51402 61.2518 -1.47773 -0.802125 53.3293 2.00199 3.16849 -1.04987 7.67 -89.739 11.5413 -1.96648 0.7219 -0.128445 -1.93281 0.807778 -22.6755 -2.09249 0.0972764 -2.66281 -2.0925 0.0972655 78.4531 -54.9798 -116.162 26.0747 -9.67657 19.3039 -7.23178 -17.0665 -38.0218 -5.47888 -0.556256 4.69353 -103.5 -40.4842 54.6517 -18.5185 7.25753 1.58402 9.00316 6.74148 -49.2732 16.9178 1.37034 4.21032 6.95362 1.09099 -1.28215 0.862791 1.42519 2.77526 
-7.523 92.7585 116.726 74.5819 -85.041 72.1401 -173.388 -7.04532 87.7769 -20.3619 23.0946 -0.120776 62.5174 8.77881 14.0119 53.9204 24.1049 -10.4387 -179.088 25.0526 87.2155 -3.84457 7.2801 -1.39361 62.993 -1.59108 -0.861745 57.0823 2.3054 2.97178 -1.36536 7.66331 -89.8121 11.5575 -2.62824 0.644355 -0.110962 -2.59733 0.759466 -22.6675 -2.70031 -0.175905 -2.65488 -2.70031 -0.175925 78.4124 -55.7338 -115.93 25.5234 -8.92689 20.5665 -7.60433 -17.043 -37.3507 -4.09405 -0.467443 4.94877 -104.262 -40.8367 53.6492 -17.3328 6.41668 1.44858 8.34534 5.22782 -50.6615 17.6676 1.57705 5.05024 7.29784 0.83988 -1.41749 0.952669 1.22038 2.99632 
-7.96433 91.6287 124.094 92.9202 -84.3862 92.3483 -173.098 -9.07005 91.2023 -27.0216 25.8649 1.50178 59.7669 5.36556 11.8212 60.1966 30.5187 -8.38901 -179.438 26.0303 89.1185 -13.713 7.95005 -0.725942 59.9322 -0.944893 -0.437309 52.6941 2.00318 3.27864 -1.42154 7.80161 -90.079 11.2751 -2.86572 0.126645 -0.392681 -2.85737 0.252746 -22.9521 -2.77118 -0.741154 -2.93943 -2.77118 -0.741164 78.0121 -55.9706 -116.393 25.0532 -8.38114 21.1753 -6.43994 -17.1662 -35.2363 -2.81102 -0.372473 4.8571 -104.709 -41.3274 53.211 -18.0745 5.36728 2.02548 9.1383 5.955 -50.0418 17.135 1.58576 5.35543 7.61575 1.01643 -0.864215 0.430129 1.27361 3.12549 
-8.05513 90.8154 131.761 105.619 -85.7313 108.253 -172.618 -8.17111 95.1918 -35.2691 23.6681 2.29216 50.1402 -5.51873 2.13516 64.7985 39.2641 0.725621 179.889 28.8381 92.815 -28.2984 7.4744 0.51516 58.8063 -0.165231 0.0434842 43.8175 1.32322 6.15039 -1.26235 7.86071 -90.5002 11.147 -2.74487 -0.728097 -0.521195 -2.77425 -0.606504 -23.0737 -2.3991 -1.51976 -3.061 -2.3991 -1.51976 77.6821 -54.8874 -117.275 24.8155 -7.99828 20.0224 -5.69461 -17.9247 -32.9001 -2.12954 -0.329831 5.4191 -105.392 -42.2841 52.6581 -20.2745 4.77914 3.78343 7.90256 5.28337 -47.3927 18.1226 1.67852 5.38994 7.27899 1.78847 0.490103 -0.102115 1.73138 2.81469 
-8.78127 90.5103 138.825 126.008 -86.2703 128.822 -173.445 -2.76714 95.94 -47.3527 22.9212 1.90256 39.7339 -13.6091 -1.90087 41.8144 16.7921 14.3241 179.346 27.9433 94.5851 -37.4559 6.90716 0.452212 65.0888 -1.55349 -0.830835 36.1739 0.475663 9.7889 -1.09583 7.86365 -90.4682 11.1404 -2.39855 -0.6983 -0.528441 -2.42696 -0.592002 -23.0762 -2.07779 -1.38712 -3.06356 -2.07778 -1.38712 78.2593 -53.7495 -116.916 25.9436 -7.68998 18.5078 -6.18311 -17.1101 -33.8672 -1.74084 -0.296713 5.91215 -105.807 -42.8376 52.3142 -22.1402 6.44588 5.43476 6.03755 5.02418 -43.3824 16.8245 1.50608 5.05053 6.79005 1.75888 1.29799 -0.773893 1.50644 1.77471 
-9.09477 91.5438 145.627 141.461 -86.4963 144.97 -173.912 6.06082 95.8245 -58.0343 16.4445 1.68878 45.816 -8.65264 1.13589 41.7544 16.1001 10.9831 179.492 22.5935 96.1042 -37.2889 6.9654 0.308317 68.7321 -2.72046 -1.44734 31.7547 -0.199398 10.3745 -0.780588 7.90903 -90.473 11.0511 -1.77315 -0.770655 -0.618854 -1.80534 -0.69186 -23.1593 -1.45956 -1.26799 -3.14666 -1.45957 -1.26799 78.2949 -53.2196 -117.076 26.1589 -7.85831 16.2785 -6.18798 -15.2124 -36.2528 -4.1385 -0.446914 4.55744 -106.506 -43.5319 51.6246 -23.2583 7.69557 6.12466 5.50416 6.63619 -39.2825 14.3361 1.18848 4.32868 6.99924 1.16823 2.14271 -1.23304 0.724072 0.415822 
